<svg width="129" height="31" viewBox="0 0 129 31" fill="none" xmlns="http://www.w3.org/2000/svg">
<path fill-rule="evenodd" clip-rule="evenodd" d="M0 24.0967H7.48125C10.2938 24.0967 12.6 23.198 14.4 21.4006C16.1438 19.7155 16.9875 17.6372 16.9875 15.222C16.9875 12.7505 16.1438 10.7284 14.4563 9.04333C12.6563 7.2459 10.35 6.34719 7.48125 6.34719H0V24.0967ZM3.2625 9.43651H7.48125C9.3375 9.43651 10.8563 9.99821 12.0375 11.1216C13.1625 12.245 13.725 13.5931 13.725 15.1658C13.725 16.7947 13.1625 18.1428 12.0375 19.21C10.8563 20.3334 9.3375 20.8951 7.48125 20.8951H3.2625V9.43651ZM19.8563 24.0967H23.175V6.40336H19.8563V24.0967ZM24.3563 24.0967H27.9L29.25 20.7827H36.675L38.025 24.0967H41.625L34.1437 6.40336H26.8312V9.26801H30.8813L24.3563 24.0967ZM30.375 17.8058L32.9625 11.4586L35.55 17.8058H30.375ZM30.0375 4.88678L35.55 3.48254V1.46045L30.0375 2.86469V4.88678ZM43.4813 24.0967H46.8V16.57H48.9938L54.1688 24.0967H58.3312L51.1875 14.2109L57.9938 6.40336H53.9438L47.9813 13.5369H46.7438V6.40336H43.4813V13.3684H41.4V16.5139H43.4813V24.0967Z" fill="#2C3586"/>
<path d="M115.2 24.0967H128.644V16.6823H125.494V20.9512H118.519V6.40332H115.2V24.0967Z" fill="#2C3586"/>
<path d="M76.7812 24.0967H80.1V6.40332H76.7812V24.0967Z" fill="#2C3586"/>
<path d="M58.5563 24.0967H61.8751V16.57H69.9188V24.0967H73.2376V6.40332H69.9188V13.5368H61.8751V6.40332H58.5563V13.5368H56.4751V16.57H58.5563V24.0967Z" fill="#2C3586"/>
<path fill-rule="evenodd" clip-rule="evenodd" d="M97.8187 0C102.937 0 107.494 2.52762 110.25 6.45948H98.6062V13.4245H96.0187V16.57H98.6062V24.0967H110.194C107.044 28.4779 101.644 31.174 95.6812 30.3876C88.8186 29.4889 83.4186 24.0405 82.5186 17.1878C82.1811 14.4355 82.5749 11.7956 83.5311 9.43646H87.8624V24.0967H91.1811C91.1811 14.4355 91.1811 16.6823 91.1811 9.43646H96.4124V6.29097H85.3311C88.1437 2.52762 92.6437 0 97.8187 0ZM111.937 9.43646C112.669 11.2339 113.062 13.1437 113.062 15.1657C113.062 17.1878 112.669 19.1538 111.937 20.895H101.925V16.5138H109.069V13.3683H101.925V9.38029H111.937V9.43646Z" fill="#B3268A"/>
</svg>
