<svg width="81" height="30" viewBox="0 0 81 30" fill="none" xmlns="http://www.w3.org/2000/svg">
<g clip-path="url(#clip0)">
<path d="M40.1687 0H45.9183V18.1088H42.2072V5.85492C42.2072 5.49223 42.2072 5 42.2072 4.37824C42.2072 3.73057 42.2072 3.26425 42.2072 2.90155L38.5745 18.1088H34.7066L31.1 2.90155C31.1 3.23834 31.1 3.73057 31.1 4.37824C31.1 5.02591 31.1 5.51813 31.1 5.85492V18.1088H27.3889V0H33.1908L36.6667 14.2487L40.1687 0Z" fill="white"/>
<path d="M49.6816 0.0263672H62.8534V3.2129H53.6541V7.38388H60.7888V10.5186H53.6541V18.1093H49.6816V0.0263672Z" fill="white"/>
<path d="M79.1354 1.94301C79.7104 2.72021 80.024 3.62694 80.024 4.71503C80.024 5.82902 79.7365 6.70984 79.1354 7.38342C78.7956 7.77202 78.3252 8.10881 77.6719 8.41969C78.6388 8.75648 79.3706 9.30052 79.8672 10.0259C80.3637 10.7513 80.5989 11.6321 80.5989 12.6684C80.5989 13.7306 80.3115 14.715 79.7365 15.5699C79.3706 16.1399 78.9263 16.6062 78.3775 16.9948C77.7764 17.4352 77.0446 17.7461 76.2083 17.9016C75.372 18.057 74.4834 18.1347 73.5165 18.1347H64.9182V0H74.1437C76.5219 0.0259067 78.1684 0.673575 79.1354 1.94301ZM68.76 3.13472V7.12435H73.4119C74.2482 7.12435 74.9277 6.96891 75.4243 6.68394C75.947 6.37306 76.2083 5.85492 76.2083 5.10363C76.2083 4.2487 75.8686 3.70466 75.1891 3.41969C74.588 3.23834 73.8562 3.13472 72.9415 3.13472H68.76ZM68.76 10.1295V14.9482H73.3858C74.2221 14.9482 74.8493 14.8446 75.3198 14.6373C76.1561 14.2487 76.5742 13.4974 76.5742 12.3834C76.5742 11.4508 76.1561 10.8031 75.3459 10.4404C74.9016 10.2332 74.2482 10.1295 73.4381 10.1295H68.76Z" fill="white"/>
<path d="M22.8416 4.53369H18.2681V18.1347H22.8416V4.53369Z" fill="white"/>
<path d="M13.7205 9.06738H9.14697V18.1347H13.7205V9.06738Z" fill="white"/>
<path d="M4.57354 13.6011H0V18.1088H4.57354V13.6011Z" fill="white"/>
<path d="M27.2583 26.2697C27.2583 24.1971 28.8002 22.4873 30.9694 22.4873C32.3023 22.4873 33.0863 22.9536 33.8181 23.6272L33.2431 24.2231C32.6159 23.6531 31.9364 23.2386 30.9433 23.2386C29.3229 23.2386 28.1207 24.5339 28.1207 26.2179V26.2438C28.1207 27.9277 29.3491 29.249 30.9433 29.249C31.9364 29.249 32.6159 28.8604 33.2954 28.2127L33.8442 28.7308C33.0863 29.508 32.25 30.0003 30.9171 30.0003C28.8002 30.0003 27.2583 28.3422 27.2583 26.2697Z" fill="white"/>
<path d="M35.0464 28.809L35.5691 28.2132C36.327 28.8867 37.0587 29.2494 38.078 29.2494C39.0711 29.2494 39.6983 28.7313 39.6983 28.0059V27.98C39.6983 27.3064 39.3324 26.9178 37.7905 26.6069C36.1179 26.2442 35.3339 25.7002 35.3339 24.5085V24.4826C35.3339 23.3427 36.3531 22.5137 37.7382 22.5137C38.8098 22.5137 39.5677 22.8246 40.2994 23.3945L39.829 24.0163C39.1495 23.4722 38.47 23.2391 37.7121 23.2391C36.7713 23.2391 36.144 23.7572 36.144 24.4049V24.4308C36.144 25.1043 36.5099 25.4929 38.1303 25.8297C39.7506 26.1924 40.5085 26.7624 40.5085 27.8764V27.9023C40.5085 29.1458 39.4631 29.9489 37.9996 29.9489C36.8758 29.9748 35.9088 29.5862 35.0464 28.809Z" fill="white"/>
<path d="M42.0767 26.2697C42.0767 24.249 43.5925 22.4873 45.8139 22.4873C48.0353 22.4873 49.525 24.2231 49.525 26.2179V26.2438C49.525 28.2386 48.0092 30.0003 45.7878 30.0003C43.5663 30.0003 42.0767 28.2645 42.0767 26.2697ZM48.6887 26.2697C48.6887 24.6117 47.4865 23.2645 45.8139 23.2645C44.1413 23.2645 42.9391 24.5858 42.9391 26.2438V26.2697C42.9391 27.9277 44.1413 29.2749 45.8139 29.2749C47.4865 29.249 48.6887 27.9018 48.6887 26.2697Z" fill="white"/>
<path d="M51.459 22.6167H54.2031C55.8496 22.6167 56.9472 23.4975 56.9472 24.9224V24.9483C56.9472 26.5027 55.6405 27.3317 54.0724 27.3317H52.2953V29.8965H51.459V22.6167ZM54.0986 26.5545C55.3008 26.5545 56.1109 25.9069 56.1109 24.9483V24.9224C56.1109 23.8861 55.3269 23.3421 54.1508 23.3421H52.2953V26.5286H54.0986V26.5545Z" fill="white"/>
<path d="M58.3062 26.2697C58.3062 24.249 59.822 22.4873 62.0434 22.4873C64.2648 22.4873 65.7545 24.2231 65.7545 26.2179V26.2438C65.7545 28.2386 64.2387 30.0003 62.0173 30.0003C59.7958 30.0003 58.3062 28.2645 58.3062 26.2697ZM64.9182 26.2697C64.9182 24.6117 63.716 23.2645 62.0434 23.2645C60.3708 23.2645 59.1686 24.5858 59.1686 26.2438V26.2697C59.1686 27.9277 60.3708 29.2749 62.0434 29.2749C63.7421 29.249 64.9182 27.9018 64.9182 26.2697Z" fill="white"/>
<path d="M67.7146 22.6167H70.8507C71.7393 22.6167 72.4711 22.8758 72.9415 23.3421C73.3074 23.7048 73.5165 24.197 73.5165 24.767V24.7929C73.5165 25.9846 72.6802 26.71 71.5302 26.9172L73.7778 29.8706H72.7586L70.6417 27.0468H68.5509V29.8706H67.7146V22.6167ZM70.7985 26.3214C71.8961 26.3214 72.6802 25.7514 72.6802 24.8188V24.7929C72.6802 23.912 72.0007 23.368 70.7985 23.368H68.5509V26.3214H70.7985Z" fill="white"/>
<path d="M77.3321 23.368H74.8755V22.6167H80.6251V23.368H78.1423V29.8706H77.306V23.368H77.3321Z" fill="white"/>
</g>
<defs>
<clipPath id="clip0">
<rect width="80.625" height="30" fill="white"/>
</clipPath>
</defs>
</svg>
