<svg width="31" height="30" viewBox="0 0 31 30" fill="none" xmlns="http://www.w3.org/2000/svg">
<path d="M30.75 28.0909L22.389 19.9091C24.0612 17.8182 25.176 15.1818 25.176 12.2727C25.0831 5.54545 19.4162 0 12.5415 0C5.66692 0 0 5.54545 0 12.2727C0 19 5.66692 24.5455 12.5415 24.5455C15.5144 24.5455 18.2085 23.5455 20.3452 21.8182L28.7062 30L30.75 28.0909ZM2.78701 12.2727C2.78701 7 7.15332 2.72727 12.5415 2.72727C17.9298 2.72727 22.2961 7 22.2961 12.2727C22.2961 17.5455 17.9298 21.8182 12.5415 21.8182C7.15332 21.8182 2.78701 17.5455 2.78701 12.2727Z" fill="#333333"/>
</svg>
