<svg width="160" height="40" viewBox="0 0 160 40" fill="none" xmlns="http://www.w3.org/2000/svg">
	<circle opacity="0.3" cx="79.5" cy="34.5" r="2.5" fill="#333333" />
	<path d="M37.2059 26V14.228H44.3159V15.992H39.2939V19.322H43.5779V21.086H39.2939V26H37.2059ZM46.3817 26V14.228H53.4737V15.992H48.4697V18.998H52.6997V20.762H48.4697V24.236H53.6537V26H46.3817ZM56.0672 26V14.228H58.1552V24.236H63.0512V26H56.0672ZM65.8021 26L62.1301 14.228H64.3441L66.0001 20.15C66.1921 20.822 66.3601 21.458 66.5041 22.058C66.6601 22.658 66.8401 23.3 67.0441 23.984H67.1161C67.3201 23.3 67.4941 22.658 67.6381 22.058C67.7941 21.458 67.9621 20.822 68.1421 20.15L69.7801 14.228H71.9221L68.2681 26H65.8021ZM73.3465 26V14.228H80.4385V15.992H75.4345V18.998H79.6645V20.762H75.4345V24.236H80.6185V26H73.3465ZM85.4081 26V15.992H82.0061V14.228H90.8981V15.992H87.4961V26H85.4081ZM95.2343 26V15.992H91.8323V14.228H100.724V15.992H97.3223V26H95.2343ZM102.684 26V14.228H109.776V15.992H104.772V18.998H109.002V20.762H104.772V24.236H109.956V26H102.684ZM112.37 26V14.228H114.728L116.816 19.988C116.948 20.36 117.074 20.744 117.194 21.14C117.314 21.524 117.44 21.908 117.572 22.292H117.644C117.776 21.908 117.896 21.524 118.004 21.14C118.124 20.744 118.25 20.36 118.382 19.988L120.416 14.228H122.792V26H120.866V20.618C120.866 20.342 120.872 20.042 120.884 19.718C120.908 19.394 120.932 19.07 120.956 18.746C120.98 18.41 121.01 18.086 121.046 17.774C121.082 17.45 121.112 17.15 121.136 16.874H121.064L120.11 19.61L118.184 24.902H116.942L114.998 19.61L114.062 16.874H113.99C114.014 17.15 114.038 17.45 114.062 17.774C114.098 18.086 114.128 18.41 114.152 18.746C114.188 19.07 114.212 19.394 114.224 19.718C114.248 20.042 114.26 20.342 114.26 20.618V26H112.37Z" fill="#333333" />
	<path fill-rule="evenodd" clip-rule="evenodd" d="M30 7H130V33H87V34H131V6H29V34H72V33H30V7Z" fill="#333333" />
</svg>
