<svg width="208" height="80" viewBox="0 0 208 80" fill="none" xmlns="http://www.w3.org/2000/svg">
<g filter="url(#filter0_d)">
<rect x="4" y="2" width="200" height="72" rx="8" fill="white"/>
<path d="M36 43.21H43.905C46.88 43.21 49.345 42.2437 51.2575 40.3949C53.085 38.6302 53.9775 36.4874 53.9775 33.9244C53.9775 31.3613 53.085 29.2185 51.3425 27.4538C49.4725 25.6051 47.0075 24.6387 43.9475 24.6387H36V43.21ZM39.4425 27.916H43.905C45.86 27.916 47.475 28.5042 48.7075 29.6807C49.8975 30.8151 50.4925 32.2437 50.4925 33.9244C50.4925 35.605 49.8975 37.0336 48.7075 38.168C47.475 39.3445 45.86 39.9327 43.905 39.9327H39.4425V27.916Z" fill="#33338E"/>
<path d="M56.9951 43.21H60.4376V24.6807H56.9951V43.21Z" fill="#33338E"/>
<path d="M61.7129 43.2101H65.4104L66.8554 39.7227H74.8029L76.2479 43.2101H79.9879L71.9979 24.6807H64.2629V27.748H68.5554L61.7129 43.2101ZM68.0879 36.6555L70.8504 30.0169L73.5704 36.6555H68.0879ZM67.7904 23.1261L73.6129 21.6555V19.5127L67.7904 20.9833V23.1261Z" fill="#33338E"/>
<path d="M81.9849 43.21H85.4274V35.3109H87.7224L93.1624 43.21H97.5824L90.1024 32.8319L97.3274 24.6807H92.9924L86.7024 32.0756H85.4274V24.6807H81.9849V32.0756H79.7324V35.3109H81.9849V43.21Z" fill="#33338E"/>
<path d="M157.72 43.21H172V35.521H168.557V39.9327H161.162V24.6807H157.72V43.21Z" fill="#33338E"/>
<path d="M117.132 43.21H120.617V24.6807H117.132V43.21Z" fill="#33338E"/>
<path d="M97.9649 43.21H101.45V35.3109H109.992V43.21H113.435V24.6807H109.992V32.0756H101.45V24.6807H97.9649V32.0756H95.7549V35.3109H97.9649V43.21Z" fill="#33338E"/>
<path d="M139.318 18C144.716 18 149.518 20.6471 152.451 24.6807H140.211V32.0756H137.491V35.3109H140.211V43.21H152.451C149.518 47.2436 144.716 49.8907 139.318 49.8907C130.393 49.8907 123.211 42.7478 123.211 33.9663C123.211 31.8235 123.636 29.8067 124.401 27.958H128.948V43.21H132.391C132.391 33.168 132.391 35.4789 132.391 27.958H137.873V24.7227H126.186C129.118 20.6471 133.921 18 139.318 18ZM154.278 27.9159C155.043 29.7647 155.468 31.8235 155.468 33.9243C155.468 36.0672 155.043 38.084 154.278 39.9327H143.696V35.3109H151.303V32.0756H143.696V27.9159H154.278Z" fill="#B1298A"/>
<path d="M136.402 44.9756H132.322V52.8327H134.787V49.9336H136.147C137.125 49.9336 137.89 49.7235 138.357 49.2613C138.867 48.7991 139.08 48.1689 139.08 47.3705C139.08 46.6142 138.825 46.026 138.4 45.6058C137.975 45.1857 137.295 44.9756 136.402 44.9756ZM136.402 48.0848C136.232 48.2529 135.892 48.3369 135.425 48.3369H134.83V46.5722H135.51C135.977 46.5722 136.275 46.6563 136.445 46.8243C136.615 46.9924 136.7 47.2025 136.7 47.4546C136.7 47.7067 136.615 47.9168 136.402 48.0848Z" fill="#F9A83F"/>
<path d="M142.862 44.9756H140.397V52.8327H146.687V50.8999H142.862V44.9756Z" fill="#F9A83F"/>
<path d="M152.68 49.8075C152.68 50.2277 152.595 50.5638 152.34 50.8159C152.127 51.026 151.787 51.152 151.362 51.152C150.895 51.152 150.597 51.026 150.342 50.7739C150.13 50.5218 150.002 50.1857 150.002 49.7655V44.9756H147.537V49.5974C147.537 50.0176 147.58 50.4378 147.75 50.942C147.835 51.2781 148.005 51.5722 148.26 51.8663C148.515 52.1604 148.812 52.3705 149.11 52.5386C149.407 52.7067 149.79 52.8327 150.257 52.8747C150.725 52.9167 151.15 52.9588 151.532 52.9588C152.17 52.9588 152.765 52.8747 153.232 52.7067C153.572 52.6226 153.912 52.3705 154.21 52.0764C154.507 51.7403 154.762 51.4041 154.89 50.984C155.06 50.5638 155.102 50.1436 155.145 49.6394V44.9756H152.68V49.8075Z" fill="#F9A83F"/>
<path d="M167.087 51.11L171.549 46.5302V44.9756H164.579V46.6563H168.574L164.154 51.1941V52.8327H171.677V51.11H167.087Z" fill="#F9A83F"/>
<path d="M162.199 48.252C161.732 47.9999 160.967 47.7478 159.904 47.5377C159.479 47.4536 159.224 47.3276 159.097 47.2436C158.969 47.1595 158.927 47.0335 158.927 46.9074C158.927 46.7394 159.012 46.6133 159.139 46.4873C159.267 46.3612 159.479 46.3192 159.777 46.3192C160.117 46.3192 160.372 46.4032 160.584 46.5713C160.754 46.6973 160.882 46.9915 160.967 47.3276L163.262 47.2015C163.177 46.4032 162.879 45.815 162.327 45.4368C161.774 45.0587 161.009 44.8906 159.989 44.8906C159.182 44.8906 158.502 44.9747 158.034 45.1847C157.567 45.3948 157.227 45.6469 156.972 46.0251C156.759 46.3612 156.632 46.7394 156.632 47.1595C156.632 47.7898 156.844 48.294 157.312 48.6721C157.779 49.0923 158.544 49.3864 159.607 49.6385C160.287 49.8066 160.712 49.9326 160.882 50.1007C161.052 50.2688 161.137 50.4368 161.137 50.6469C161.137 50.857 161.009 51.0251 160.839 51.1931C160.669 51.3612 160.372 51.4452 160.032 51.4452C159.522 51.4452 159.182 51.3192 158.927 50.983C158.799 50.815 158.672 50.5209 158.629 50.1427L156.292 50.2688C156.377 51.0671 156.674 51.7393 157.184 52.2435C157.694 52.7477 158.629 52.9998 159.989 52.9998C160.754 52.9998 161.392 52.8738 161.902 52.6637C162.412 52.4536 162.794 52.1175 163.092 51.6973C163.389 51.2772 163.517 50.815 163.517 50.3108C163.517 49.8486 163.432 49.4704 163.219 49.1343C163.007 48.7562 162.667 48.5041 162.199 48.252Z" fill="#F9A83F"/>
</g>
<defs>
<filter id="filter0_d" x="0" y="0" width="208" height="80" filterUnits="userSpaceOnUse" color-interpolation-filters="sRGB">
<feFlood flood-opacity="0" result="BackgroundImageFix"/>
<feColorMatrix in="SourceAlpha" type="matrix" values="0 0 0 0 0 0 0 0 0 0 0 0 0 0 0 0 0 0 127 0"/>
<feOffset dy="2"/>
<feGaussianBlur stdDeviation="2"/>
<feColorMatrix type="matrix" values="0 0 0 0 0 0 0 0 0 0 0 0 0 0 0 0 0 0 0.25 0"/>
<feBlend mode="normal" in2="BackgroundImageFix" result="effect1_dropShadow"/>
<feBlend mode="normal" in="SourceGraphic" in2="effect1_dropShadow" result="shape"/>
</filter>
</defs>
</svg>
