<svg width="208" height="80" viewBox="0 0 208 80" fill="none" xmlns="http://www.w3.org/2000/svg">
<g filter="url(#filter0_d)">
<rect x="4" y="2" width="200" height="72" rx="8" fill="white"/>
<path d="M81.9749 41.35H85.4517V33.4454H87.7489L93.2125 41.3808H97.6206L90.1392 30.9753L97.3412 22.7619H93.0262L86.7245 30.2033H85.4517V22.7311H81.9749V30.1724H79.7398V33.4454H81.9749V41.35ZM67.8192 21.1563L73.6553 19.6742V17.5437L67.8192 19.0258V21.1563ZM68.0986 34.7731L70.8304 28.1037L73.5312 34.7731H68.0986ZM61.7348 41.35H65.4289L66.8569 37.83H74.7729L76.2009 41.35H79.926L72.01 22.7311H64.2493V25.8188H68.5332L61.7348 41.35ZM56.9852 41.35H60.431V22.7311H56.9852V41.35ZM39.4458 26.004H43.885C45.8407 26.004 47.4549 26.5907 48.6656 27.7949C49.8452 28.9374 50.4661 30.3886 50.4661 32.056C50.4661 33.7542 49.8763 35.1745 48.6656 36.317C47.4549 37.4903 45.8407 38.1079 43.885 38.1079H39.4458V26.004ZM36 41.35H43.916C46.8961 41.35 49.3485 40.3928 51.2422 38.5401C53.0737 36.7493 53.9429 34.5879 53.9429 32.056C53.9429 29.4623 53.0427 27.3009 51.2732 25.5718C49.4106 23.6882 46.9272 22.7619 43.885 22.7619H36V41.35ZM157.72 22.7311H161.166V38.077H168.554V33.6307H172V41.35H157.72V22.7311ZM117.147 22.7311H120.593V41.35H117.147V22.7311ZM97.9931 33.4454H95.758V30.1724H97.9931V22.7311H101.439V30.1724H110.007V22.7311H113.453V41.35H110.007V33.4454H101.439V41.3808H97.9931" fill="#2D2E7E"/>
<path d="M154.275 26.0042C155.051 27.8568 155.454 29.9256 155.454 32.0561C155.454 34.1866 155.02 36.2245 154.275 38.108H143.689V33.4456H151.294V30.1726H143.689V26.0042H154.275ZM139.343 16C144.744 16 149.556 18.6554 152.474 22.7312H140.243V30.1726H137.511V33.4456H140.243V41.381H152.474C149.556 45.4568 144.775 48.1122 139.343 48.1122C130.433 48.1122 123.231 40.9178 123.231 32.0561C123.231 29.9256 123.666 27.8877 124.411 26.0042H128.974V41.381H132.42V26.0042H137.915V22.7312H126.212C129.13 18.6554 133.941 16 139.343 16Z" fill="#B61B7F"/>
<path d="M161.011 50.6752C161.011 55.8317 156.82 60.0001 151.636 60.0001C146.452 60.0001 142.261 55.8317 142.261 50.6752C142.261 45.5188 146.452 41.3503 151.636 41.3503C156.82 41.3503 161.011 45.5188 161.011 50.6752Z" fill="#6BC5D1"/>
<path d="M156.074 56.8503H147.568V55.0594L150.641 51.9717C151.542 51.0454 152.131 50.3969 152.411 50.0573C152.69 49.6868 152.877 49.378 153.001 49.0692C153.125 48.7604 153.187 48.4517 153.187 48.112C153.187 47.618 153.063 47.2783 152.783 47.0313C152.504 46.7843 152.163 46.6608 151.697 46.6608C151.231 46.6608 150.766 46.7534 150.331 46.9696C149.896 47.1857 149.431 47.4945 148.934 47.8959L147.537 46.2594C148.127 45.7654 148.624 45.3948 149.027 45.1787C149.431 44.9626 149.865 44.8082 150.331 44.6847C150.797 44.5612 151.324 44.5303 151.883 44.5303C152.659 44.5303 153.311 44.6538 153.901 44.9317C154.491 45.2096 154.925 45.5801 155.267 46.105C155.608 46.6299 155.764 47.1857 155.764 47.8033C155.764 48.359 155.67 48.8839 155.453 49.378C155.267 49.872 154.956 50.3661 154.522 50.891C154.087 51.4159 153.373 52.126 152.349 53.0832L150.797 54.5653V54.6889H156.105V56.8503H156.074Z" fill="white"/>
</g>
<defs>
<filter id="filter0_d" x="0" y="0" width="208" height="80" filterUnits="userSpaceOnUse" color-interpolation-filters="sRGB">
<feFlood flood-opacity="0" result="BackgroundImageFix"/>
<feColorMatrix in="SourceAlpha" type="matrix" values="0 0 0 0 0 0 0 0 0 0 0 0 0 0 0 0 0 0 127 0"/>
<feOffset dy="2"/>
<feGaussianBlur stdDeviation="2"/>
<feColorMatrix type="matrix" values="0 0 0 0 0 0 0 0 0 0 0 0 0 0 0 0 0 0 0.25 0"/>
<feBlend mode="normal" in2="BackgroundImageFix" result="effect1_dropShadow"/>
<feBlend mode="normal" in="SourceGraphic" in2="effect1_dropShadow" result="shape"/>
</filter>
</defs>
</svg>
