<svg width="60" height="60" viewBox="0 0 60 60" fill="none" xmlns="http://www.w3.org/2000/svg">
<path d="M23.5743 38.0638C25.8363 38.0638 27.67 36.2301 27.67 33.9681C27.67 31.706 25.8363 29.8723 23.5743 29.8723C21.3122 29.8723 19.4785 31.706 19.4785 33.9681C19.4785 36.2301 21.3122 38.0638 23.5743 38.0638Z" fill="#333333"/>
<path d="M37.4248 38.4361C39.6869 38.4361 41.5206 36.6024 41.5206 34.3404C41.5206 32.0784 39.6869 30.2446 37.4248 30.2446C35.1628 30.2446 33.3291 32.0784 33.3291 34.3404C33.3291 36.6024 35.1628 38.4361 37.4248 38.4361Z" fill="#333333"/>
<path d="M30.7227 27.266C32.9847 27.266 34.8184 25.4322 34.8184 23.1702C34.8184 20.9082 32.9847 19.0745 30.7227 19.0745C28.4607 19.0745 26.627 20.9082 26.627 23.1702C26.627 25.4322 28.4607 27.266 30.7227 27.266Z" fill="#333333"/>
<circle cx="30.5" cy="29.5" r="17" stroke="#333333"/>
</svg>
