<svg width="60" height="60" viewBox="0 0 60 60" fill="none" xmlns="http://www.w3.org/2000/svg">
<path d="M20.745 36V24.228H27.837V25.992H22.833V28.998H27.063V30.762H22.833V34.236H28.017V36H20.745ZM30.4305 36V24.228H32.5725L36.2445 30.852L37.4505 33.354H37.5225C37.4745 32.742 37.4145 32.088 37.3425 31.392C37.2825 30.684 37.2525 30 37.2525 29.34V24.228H39.2505V36H37.1085L33.4365 29.376L32.2305 26.874H32.1585C32.2065 27.498 32.2605 28.152 32.3205 28.836C32.3925 29.52 32.4285 30.192 32.4285 30.852V36H30.4305Z" fill="#333333"/>
<rect x="8.5" y="18.5" width="43" height="23" stroke="#333333"/>
</svg>
