<svg width="189" height="50" viewBox="0 0 189 50" fill="none" xmlns="http://www.w3.org/2000/svg">
<g clip-path="url(#clip0)">
<path d="M0.059082 35.4744H11.0378C15.1696 35.4744 18.5931 34.1168 21.2493 31.5197C23.7874 29.0406 25.0269 26.0303 25.0269 22.4297C25.0269 18.8292 23.7874 15.8189 21.3673 13.3398C18.7702 10.7427 15.3467 9.38507 11.0969 9.38507H0.059082V35.4744ZM4.84016 13.9891H11.0378C13.753 13.9891 15.996 14.8154 17.7077 16.4681C19.3605 18.0618 20.1868 20.0687 20.1868 22.4297C20.1868 24.7908 19.3605 26.7976 17.7077 28.3913C15.996 30.044 13.753 30.8704 11.0378 30.8704H4.84016V13.9891Z" fill="#33338E"/>
<path d="M29.2178 35.4744H33.9988V9.44409H29.2178V35.4744Z" fill="#33338E"/>
<path d="M35.7695 35.4744H40.9048L42.9116 30.5752H53.9494L55.9563 35.4744H61.1505L50.0537 9.44408H39.3111V13.7529H45.2727L35.7695 35.4744ZM44.6234 26.2664L48.46 16.9403L52.2377 26.2664H44.6234ZM44.2102 7.26013L52.2967 5.19424V2.18393L44.2102 4.24983V7.26013Z" fill="#33338E"/>
<path d="M63.9247 35.4744H68.7058V24.3776H71.8932L79.4485 35.4744H85.5872L75.1986 20.8951L85.233 9.44409H79.2124L70.4766 19.8326H68.7058V9.44409H63.9247V19.8326H60.7964V24.3776H63.9247V35.4744Z" fill="#33338E"/>
<path d="M169.108 35.4744H188.941V24.6727H184.16V30.8704H173.889V9.44409H169.108V35.4744Z" fill="#33338E"/>
<path d="M112.739 35.4744H117.579V9.44409H112.739V35.4744Z" fill="#33338E"/>
<path d="M86.1182 35.4744H90.9583V24.3776H102.822V35.4744H107.603V9.44409H102.822V19.8326H90.9583V9.44409H86.1182V19.8326H83.0488V24.3776H86.1182V35.4744Z" fill="#33338E"/>
<path d="M143.55 0.059021C151.047 0.059021 157.717 3.77763 161.789 9.44409H144.79V19.8326H141.012V24.3776H144.79V35.4744H161.789C157.717 41.1408 151.047 44.8595 143.55 44.8595C131.155 44.8595 121.18 34.8251 121.18 22.4887C121.18 19.4784 121.77 16.6452 122.832 14.0481H129.148V35.4744H133.929C133.929 21.3673 133.929 24.6137 133.929 14.0481H141.544V9.50312H125.311C129.384 3.77763 136.054 0.059021 143.55 0.059021ZM164.327 13.9891C165.39 16.5862 165.98 19.4784 165.98 22.4297C165.98 25.44 165.39 28.2733 164.327 30.8704H149.63V24.3776H160.196V19.8326H149.63V13.9891H164.327Z" fill="#B1298A"/>
<path d="M139.95 38.6618H134.283V49.6996H137.707V45.6268H139.596C140.953 45.6268 142.016 45.3317 142.665 44.6824C143.373 44.0331 143.668 43.1477 143.668 42.0262C143.668 40.9638 143.314 40.1374 142.724 39.5472C142.134 38.9569 141.189 38.6618 139.95 38.6618ZM139.95 43.0297C139.714 43.2658 139.241 43.3838 138.592 43.3838H137.766V40.9047H138.71C139.359 40.9047 139.773 41.0228 140.009 41.2589C140.245 41.495 140.363 41.7901 140.363 42.1443C140.363 42.4984 140.245 42.7936 139.95 43.0297Z" fill="#F9A83F"/>
<path d="M148.922 38.6618H145.498V49.6996H154.234V46.9844H148.922V38.6618Z" fill="#F9A83F"/>
<path d="M162.557 45.4497C162.557 46.04 162.439 46.5122 162.084 46.8663C161.789 47.1615 161.317 47.3385 160.727 47.3385C160.078 47.3385 159.664 47.1615 159.31 46.8073C159.015 46.4532 158.838 45.981 158.838 45.3907V38.6618H155.415V45.1546C155.415 45.7448 155.474 46.3351 155.71 47.0434C155.828 47.5156 156.064 47.9288 156.418 48.342C156.772 48.7552 157.185 49.0503 157.599 49.2864C158.012 49.5225 158.543 49.6996 159.192 49.7586C159.841 49.8176 160.432 49.8766 160.963 49.8766C161.848 49.8766 162.675 49.7586 163.324 49.5225C163.796 49.4044 164.268 49.0503 164.682 48.6371C165.095 48.1649 165.449 47.6927 165.626 47.1024C165.862 46.5122 165.921 45.9219 165.98 45.2136V38.6618H162.557V45.4497Z" fill="#F9A83F"/>
<path d="M182.566 47.2795L188.764 40.8457V38.6618H179.083V41.0228H184.632L178.493 47.3976V49.6996H188.941V47.2795H182.566Z" fill="#F9A83F"/>
<path d="M175.778 43.2658C175.129 42.9116 174.067 42.5575 172.591 42.2623C172.001 42.1443 171.646 41.9672 171.469 41.8492C171.292 41.7311 171.233 41.554 171.233 41.377C171.233 41.1409 171.351 40.9638 171.528 40.7867C171.706 40.6096 172.001 40.5506 172.414 40.5506C172.886 40.5506 173.24 40.6687 173.535 40.9048C173.771 41.0818 173.948 41.495 174.067 41.9672L177.254 41.7901C177.136 40.6687 176.723 39.8423 175.955 39.3111C175.188 38.7798 174.126 38.5437 172.709 38.5437C171.587 38.5437 170.643 38.6618 169.994 38.9569C169.345 39.252 168.872 39.6062 168.518 40.1374C168.223 40.6096 168.046 41.1409 168.046 41.7311C168.046 42.6165 168.341 43.3248 168.99 43.856C169.64 44.4463 170.702 44.8595 172.178 45.2136C173.122 45.4497 173.712 45.6268 173.949 45.8629C174.185 46.099 174.303 46.3351 174.303 46.6302C174.303 46.9254 174.126 47.1615 173.889 47.3976C173.653 47.6337 173.24 47.7517 172.768 47.7517C172.06 47.7517 171.587 47.5747 171.233 47.1024C171.056 46.8663 170.879 46.4532 170.82 45.9219L167.574 46.099C167.692 47.2205 168.105 48.1649 168.813 48.8732C169.522 49.5815 170.82 49.9357 172.709 49.9357C173.771 49.9357 174.657 49.7586 175.365 49.4635C176.073 49.1683 176.605 48.6961 177.018 48.1059C177.431 47.5156 177.608 46.8663 177.608 46.158C177.608 45.5088 177.49 44.9775 177.195 44.5053C176.9 43.9741 176.428 43.6199 175.778 43.2658Z" fill="#F9A83F"/>
</g>
<defs>
<clipPath id="clip0">
<rect width="189" height="49.9357" fill="white"/>
</clipPath>
</defs>
</svg>
