<svg width="208" height="80" viewBox="0 0 208 80" fill="none" xmlns="http://www.w3.org/2000/svg">
<g filter="url(#filter0_d)">
<rect x="4" y="2" width="200" height="72" rx="8" fill="white"/>
<path d="M81.9749 41.3503H85.4517V33.4457H87.7489L93.2125 41.3811H97.6206L90.1392 30.9755L97.3412 22.7622H93.0262L86.7245 30.2036H85.4517V22.7313H81.9749V30.1727H79.7398V33.4457H81.9749V41.3503ZM67.8192 21.1566L73.6553 19.6745V17.5439L67.8192 19.0261V21.1566ZM68.0986 34.7734L70.8304 28.1039L73.5312 34.7734H68.0986ZM61.7348 41.3503H65.4289L66.8569 37.8303H74.7729L76.2009 41.3503H79.926L72.01 22.7313H64.2493V25.819H68.5332L61.7348 41.3503ZM56.9852 41.3503H60.431V22.7313H56.9852V41.3503ZM39.4458 26.0043H43.885C45.8407 26.0043 47.4549 26.591 48.6656 27.7952C49.8452 28.9376 50.4661 30.3889 50.4661 32.0562C50.4661 33.7545 49.8763 35.1748 48.6656 36.3173C47.4549 37.4906 45.8407 38.1082 43.885 38.1082H39.4458V26.0043ZM36 41.3503H43.916C46.8961 41.3503 49.3485 40.3931 51.2422 38.5404C53.0737 36.7496 53.9429 34.5882 53.9429 32.0562C53.9429 29.4625 53.0427 27.3011 51.2732 25.572C49.4106 23.6885 46.9272 22.7622 43.885 22.7622H36V41.3503ZM157.72 22.7313H161.166V38.0773H168.554V33.631H172V41.3503H157.72V22.7313ZM117.147 22.7313H120.593V41.3503H117.147V22.7313ZM97.9931 33.4457H95.758V30.1727H97.9931V22.7313H101.439V30.1727H110.007V22.7313H113.453V41.3503H110.007V33.4457H101.439V41.3811H97.9931" fill="#2D2E7E"/>
<path d="M154.275 26.0042C155.051 27.8568 155.454 29.9256 155.454 32.0561C155.454 34.1867 155.02 36.2246 154.275 38.1081H143.689V33.4456H151.294V30.1726H143.689V26.0042H154.275ZM139.343 16C144.744 16 149.556 18.6554 152.474 22.7312H140.243V30.1726H137.511V33.4456H140.243V41.3811H152.474C149.556 45.4568 144.775 48.1123 139.343 48.1123C130.433 48.1123 123.231 40.9179 123.231 32.0561C123.231 29.9256 123.666 27.8877 124.411 26.0042H128.974V41.3811H132.42V26.0042H137.915V22.7312H126.212C129.13 18.6554 133.941 16 139.343 16Z" fill="#B61B7F"/>
<path d="M161.073 50.675C161.073 55.8315 156.882 59.9999 151.698 59.9999C146.514 59.9999 142.323 55.8315 142.323 50.675C142.323 45.5185 146.514 41.3501 151.698 41.3501C156.882 41.3501 161.073 45.5185 161.073 50.675Z" fill="#2D2D7C"/>
<path d="M153.841 44.8086H151.73L147.787 47.9272L149.029 49.471L150.426 48.3595C150.581 48.236 150.891 47.9581 151.326 47.5258L151.295 48.7917L151.264 49.9342V56.9742H153.841V44.8086Z" fill="white"/>
</g>
<defs>
<filter id="filter0_d" x="0" y="0" width="208" height="80" filterUnits="userSpaceOnUse" color-interpolation-filters="sRGB">
<feFlood flood-opacity="0" result="BackgroundImageFix"/>
<feColorMatrix in="SourceAlpha" type="matrix" values="0 0 0 0 0 0 0 0 0 0 0 0 0 0 0 0 0 0 127 0"/>
<feOffset dy="2"/>
<feGaussianBlur stdDeviation="2"/>
<feColorMatrix type="matrix" values="0 0 0 0 0 0 0 0 0 0 0 0 0 0 0 0 0 0 0.25 0"/>
<feBlend mode="normal" in2="BackgroundImageFix" result="effect1_dropShadow"/>
<feBlend mode="normal" in="SourceGraphic" in2="effect1_dropShadow" result="shape"/>
</filter>
</defs>
</svg>
